<?xml version="1.0" encoding="utf-8"?>
<!-- Generator: Adobe Illustrator 24.1.0, SVG Export Plug-In . SVG Version: 6.00 Build 0)  -->
<svg version="1.1" id="Layer_1" xmlns="http://www.w3.org/2000/svg" xmlns:xlink="http://www.w3.org/1999/xlink" x="0px" y="0px"
	 viewBox="0 0 171.5 145" style="enable-background:new 0 0 171.5 145;" xml:space="preserve">
<style type="text/css">
	.st0{fill:#FFFFFF;}
	.st1{fill:#EF4135;}
</style>
<path class="st0" d="M8.5,115.7c-1,0-2.1-0.1-2.6-0.3v4.9H4V108h4.3c2.9,0,4.5,1.3,4.5,3.8C12.7,114.2,11,115.7,8.5,115.7z M8,109.7
	H5.9v4.2c0.3,0.1,1.2,0.3,2.4,0.3c1.5,0,2.5-0.9,2.5-2.3C10.8,110.3,10,109.7,8,109.7z"/>
<path class="st0" d="M18,120.4v-12.3h7.6v1.6H20v3.5h4.7v1.6H20v3.9h5.8v1.6H18V120.4z"/>
<path class="st0" d="M38.5,120.4l-3.2-5h-1.8v5h-1.9v-12.3h4.1c2.9,0,4.6,1.2,4.6,3.5c0,1.9-1.2,3.3-2.9,3.6l3.4,5.2
	C40.8,120.4,38.5,120.4,38.5,120.4z M37.3,110.1c-0.4-0.3-0.6-0.3-2-0.3h-1.9v4h1.9c1.3,0,1.5,0,2.1-0.5c0.5-0.4,0.7-0.9,0.7-1.6
	C38.1,110.9,37.8,110.4,37.3,110.1z"/>
<path class="st0" d="M47.9,109.7v3.7h4.7v1.6h-4.7v5.3h-2V108h7.6v1.6L47.9,109.7L47.9,109.7z"/>
<path class="st0" d="M64.4,120.6c-4,0-6.8-2.7-6.8-6.4c0-3.7,2.8-6.4,6.8-6.4c3.9,0,6.8,2.7,6.8,6.4
	C71.2,117.9,68.3,120.6,64.4,120.6z M64.4,109.5c-2.7,0-4.7,2-4.7,4.7s2.1,4.7,4.7,4.7c2.7,0,4.7-2.1,4.7-4.7
	C69.1,111.5,67.1,109.5,64.4,109.5z"/>
<path class="st0" d="M83.9,120.4l-3.2-5h-1.8v5h-2v-12.3H81c3,0,4.6,1.2,4.6,3.5c0,1.9-1.2,3.3-2.9,3.6l3.4,5.2
	C86.1,120.4,83.9,120.4,83.9,120.4z M82.8,110.1c-0.4-0.3-0.6-0.3-2-0.3h-1.9v4h1.9c1.3,0,1.5,0,2.1-0.5c0.5-0.4,0.7-0.9,0.7-1.6
	C83.6,110.9,83.3,110.4,82.8,110.1z"/>
<path class="st0" d="M103,120.4v-9.8c-0.2,0.6-0.2,0.8-0.5,1.4l-3.8,8.3h-1.5l-3.4-7.8c-0.3-0.7-0.4-0.9-0.5-1.6v9.4h-2V108h2.5
	l4,9.1c0.2,0.4,0.2,0.5,0.2,1c0.1-0.4,0.1-0.5,0.3-1l4.1-9.1h2.5v12.3L103,120.4L103,120.4z"/>
<path class="st0" d="M119.9,120.4l-1.4-3.4h-5.3l-1.4,3.4h-2l5-12.6h1.9l5,12.6H119.9z M115.9,109.9l-2.1,5.5h4.2L115.9,109.9z"/>
<path class="st0" d="M136.1,120.5l-6.9-8.9c-0.4-0.5-0.6-0.8-0.6-1.1v9.8h-1.8V108h2l6.9,8.7c0.2,0.3,0.4,0.7,0.5,1.1v-9.9h1.8v12.4
	h-1.9V120.5z"/>
<path class="st0" d="M153.7,110.5c-0.6-0.4-0.8-0.6-1.2-0.7c-0.5-0.2-1.3-0.3-2-0.3c-2.8,0-4.7,1.9-4.7,4.6c0,1.4,0.5,2.7,1.5,3.6
	c0.9,0.9,2.1,1.3,3.8,1.3c1.2,0,1.7-0.1,2.7-0.6l0.6,1.4c-1.4,0.6-2.5,0.8-3.7,0.8c-4.1,0-7-2.6-7-6.4c0-3.6,2.9-6.3,6.8-6.3
	c1.6,0,2.8,0.4,4.1,1.2L153.7,110.5z"/>
<path class="st0" d="M159.7,120.4v-12.3h7.6v1.6h-5.6v3.5h4.7v1.6h-4.7v3.9h5.8v1.6h-7.8V120.4z"/>
<path class="st0" d="M41.3,131.4c-0.6-0.4-0.9-0.5-1.5-0.7s-1.2-0.3-1.7-0.3c-1.6,0-2.5,0.6-2.5,1.5c0,0.3,0.1,0.5,0.2,0.6
	c0.4,0.5,0.8,0.8,3.2,1.9c2.3,1.1,3.1,2,3.1,3.5c0,2.2-1.7,3.5-4.5,3.5c-0.9,0-1.8-0.1-2.5-0.4c-0.5-0.2-0.9-0.4-1.7-0.9l0.9-1.7
	c0.8,0.6,1.1,0.8,1.6,1c0.6,0.3,1.3,0.4,2,0.4c1.4,0,2.3-0.6,2.3-1.6c0-0.8-0.4-1.4-1.4-1.8l-2.2-1.1c-1.9-0.9-2.7-1.9-2.7-3.2
	c0-2,1.7-3.3,4.5-3.3c0.8,0,1.6,0.1,2.3,0.3c0.6,0.2,0.9,0.3,1.6,0.7L41.3,131.4z"/>
<path class="st0" d="M55.5,141.3l-1.4-3.4h-5.3l-1.4,3.4h-2l5-12.6h1.9l5,12.6H55.5z M51.5,130.8l-2.1,5.5h4.2L51.5,130.8z"/>
<path class="st0" d="M71.8,141.4l-6.9-8.9c-0.4-0.5-0.6-0.8-0.6-1.1v9.8h-1.8V129h2l6.9,8.7c0.2,0.3,0.4,0.7,0.5,1.1V129h1.8v12.4
	H71.8z"/>
<path class="st0" d="M84.6,130.6v10.7h-1.9v-10.7h-4.4V129H89v1.6H84.6z"/>
<path class="st0" d="M101.3,141.3l-1.4-3.4h-5.3l-1.4,3.4h-2l5-12.6h1.9l5,12.6H101.3z M97.2,130.8l-2.1,5.5h4.2L97.2,130.8z"/>
<path class="st0" d="M117.8,130.6v3.7h4.7v1.6h-4.7v5.3h-2V129h7.6v1.6H117.8z"/>
<path class="st0" d="M129,141.3V129h7.6v1.6H131v3.5h4.7v1.6H131v3.9h5.8v1.6L129,141.3L129,141.3z"/>
<path class="st1" d="M110.2,38.5c10.9,14.3,8.3,34.6-6,45.5C90,94.8,69.6,92.1,58.7,77.8L110.2,38.5z"/>
<path class="st0" d="M67.2,58.1c-3.4-4.5-5.7-9.5-6.8-14.6c-0.1,0-0.2,0-0.3,0H41.6V23.3h0.2l0,0h18.4c0.7,0,1.4,0,2.1,0.1
	c2-4.7,5.2-8.8,9.4-12.1c0.6-0.4,1.2-0.8,1.7-1.2c-0.7-0.3-1.5-0.6-2.3-0.8c-3.3-1-6.9-1.5-10.6-1.5H25.8v79.5h15.8V59.1h17.5
	C61.4,59.1,64.6,59.1,67.2,58.1L67.2,58.1z"/>
<path class="st0" d="M121.4,38.5h-11.3c10.8,14.4,8.3,34.6-5.9,45.5c-1.9,1.5-3.8,2.6-6,3.6h23.2V54h15.2V38.5H121.4L121.4,38.5z"/>
<path class="st0" d="M102.2,7.8c6.1,2.4,11.8,6.6,16.1,12.3l-4.4,3.3h35.8V7.8H102.2z"/>
<path class="st1" d="M71.6,11.3c-4.3,3.3-7.4,7.4-9.4,12.1c2.6,0.3,4.6,1,6.3,2.3c2.1,1.6,3.1,4.1,3.1,7.6c0,6-2.9,9.3-8.6,10.1
	c-0.2,0-1.1,0-2.6,0.1c1.1,5.1,3.3,10.1,6.8,14.6L118.3,20C106.7,4.7,85.6,0.6,71.6,11.3z"/>
</svg>
